<?xml version="1.0" encoding="us-ascii" standalone="no"?><svg xmlns="http://www.w3.org/2000/svg" xmlns:xlink="http://www.w3.org/1999/xlink" contentStyleType="text/css" height="814px" preserveAspectRatio="none" style="width:1064px;height:814px;background:#FFFFFF;" version="1.1" viewBox="0 0 1064 814" width="1064px" zoomAndPan="magnify"><defs/><g><!--class Main--><g id="elem_Main"><rect codeLine="2" fill="#F1F1F1" height="48" id="Main" rx="2.5" ry="2.5" style="stroke:#181818;stroke-width:0.5;" width="65" x="598" y="7"/><ellipse cx="613" cy="23" fill="#ADD1B2" rx="11" ry="11" style="stroke:#181818;stroke-width:1.0;"/><path d="M615.4731,29.1431 Q614.8921,29.4419 614.2529,29.5913 Q613.6138,29.7407 612.9082,29.7407 Q610.4014,29.7407 609.0815,28.0889 Q607.7617,26.437 607.7617,23.3159 Q607.7617,20.1865 609.0815,18.5347 Q610.4014,16.8828 612.9082,16.8828 Q613.6138,16.8828 614.2612,17.0322 Q614.9087,17.1816 615.4731,17.4805 L615.4731,20.2031 Q614.8423,19.6221 614.2488,19.3523 Q613.6553,19.0825 613.0244,19.0825 Q611.6797,19.0825 610.9949,20.1492 Q610.3101,21.2158 610.3101,23.3159 Q610.3101,25.4077 610.9949,26.4744 Q611.6797,27.541 613.0244,27.541 Q613.6553,27.541 614.2488,27.2712 Q614.8423,27.0015 615.4731,26.4204 Z " fill="#000000"/><text fill="#000000" font-family="sans-serif" font-size="14" lengthAdjust="spacing" textLength="33" x="627" y="28.291">Main</text><line style="stroke:#181818;stroke-width:0.5;" x1="599" x2="662" y1="39" y2="39"/><line style="stroke:#181818;stroke-width:0.5;" x1="599" x2="662" y1="47" y2="47"/></g><!--class Game--><g id="elem_Game"><rect codeLine="5" fill="#F1F1F1" height="196.3945" id="Game" rx="2.5" ry="2.5" style="stroke:#181818;stroke-width:0.5;" width="164" x="548.5" y="115"/><ellipse cx="606.75" cy="131" fill="#ADD1B2" rx="11" ry="11" style="stroke:#181818;stroke-width:1.0;"/><path d="M609.2231,137.1431 Q608.6421,137.4419 608.0029,137.5913 Q607.3638,137.7407 606.6582,137.7407 Q604.1514,137.7407 602.8315,136.0889 Q601.5117,134.437 601.5117,131.3159 Q601.5117,128.1865 602.8315,126.5347 Q604.1514,124.8828 606.6582,124.8828 Q607.3638,124.8828 608.0112,125.0322 Q608.6587,125.1816 609.2231,125.4805 L609.2231,128.2031 Q608.5923,127.6221 607.9988,127.3523 Q607.4053,127.0825 606.7744,127.0825 Q605.4297,127.0825 604.7449,128.1492 Q604.0601,129.2158 604.0601,131.3159 Q604.0601,133.4077 604.7449,134.4744 Q605.4297,135.541 606.7744,135.541 Q607.4053,135.541 607.9988,135.2712 Q608.5923,135.0015 609.2231,134.4204 Z " fill="#000000"/><text fill="#000000" font-family="sans-serif" font-size="14" lengthAdjust="spacing" textLength="39" x="627.25" y="136.291">Game</text><line style="stroke:#181818;stroke-width:0.5;" x1="549.5" x2="711.5" y1="147" y2="147"/><rect fill="none" height="6" style="stroke:#C82930;stroke-width:1.0;" width="6" x="556.5" y="157.7441"/><text fill="#000000" font-family="sans-serif" font-size="14" lengthAdjust="spacing" textLength="91" x="568.5" y="164.5352">player: Player</text><rect fill="none" height="6" style="stroke:#C82930;stroke-width:1.0;" width="6" x="556.5" y="174.2324"/><text fill="#000000" font-family="sans-serif" font-size="14" lengthAdjust="spacing" textLength="95" x="568.5" y="181.0234">dealer: Dealer</text><rect fill="none" height="6" style="stroke:#C82930;stroke-width:1.0;" width="6" x="556.5" y="190.7207"/><text fill="#000000" font-family="sans-serif" font-size="14" lengthAdjust="spacing" textLength="73" x="568.5" y="197.5117">deck: Deck</text><line style="stroke:#181818;stroke-width:0.5;" x1="549.5" x2="711.5" y1="204.4648" y2="204.4648"/><ellipse cx="559.5" cy="218.209" fill="#84BE84" rx="3" ry="3" style="stroke:#038048;stroke-width:1.0;"/><text fill="#000000" font-family="sans-serif" font-size="14" lengthAdjust="spacing" textLength="80" x="568.5" y="222">startGame()</text><ellipse cx="559.5" cy="234.6973" fill="#84BE84" rx="3" ry="3" style="stroke:#038048;stroke-width:1.0;"/><text fill="#000000" font-family="sans-serif" font-size="14" lengthAdjust="spacing" textLength="94" x="568.5" y="238.4883">playerDraws()</text><ellipse cx="559.5" cy="251.1855" fill="#84BE84" rx="3" ry="3" style="stroke:#038048;stroke-width:1.0;"/><text fill="#000000" font-family="sans-serif" font-size="14" lengthAdjust="spacing" textLength="95" x="568.5" y="254.9766">dealerDraws()</text><ellipse cx="559.5" cy="267.6738" fill="#84BE84" rx="3" ry="3" style="stroke:#038048;stroke-width:1.0;"/><text fill="#000000" font-family="sans-serif" font-size="14" lengthAdjust="spacing" textLength="135" x="568.5" y="271.4648">displayPlayerHand()</text><ellipse cx="559.5" cy="284.1621" fill="#84BE84" rx="3" ry="3" style="stroke:#038048;stroke-width:1.0;"/><text fill="#000000" font-family="sans-serif" font-size="14" lengthAdjust="spacing" textLength="138" x="568.5" y="287.9531">displayDealerHand()</text><ellipse cx="559.5" cy="300.6504" fill="#84BE84" rx="3" ry="3" style="stroke:#038048;stroke-width:1.0;"/><text fill="#000000" font-family="sans-serif" font-size="14" lengthAdjust="spacing" textLength="88" x="568.5" y="304.4414">showResult()</text></g><!--class Card--><g id="elem_Card"><rect codeLine="17" fill="#F1F1F1" height="229.3711" id="Card" rx="2.5" ry="2.5" style="stroke:#181818;stroke-width:0.5;" width="301" x="7" y="578.33"/><ellipse cx="136.75" cy="594.33" fill="#ADD1B2" rx="11" ry="11" style="stroke:#181818;stroke-width:1.0;"/><path d="M139.2231,600.4731 Q138.6421,600.7719 138.0029,600.9213 Q137.3638,601.0707 136.6582,601.0707 Q134.1514,601.0707 132.8315,599.4189 Q131.5117,597.767 131.5117,594.6459 Q131.5117,591.5165 132.8315,589.8647 Q134.1514,588.2128 136.6582,588.2128 Q137.3638,588.2128 138.0112,588.3622 Q138.6587,588.5116 139.2231,588.8105 L139.2231,591.5331 Q138.5923,590.9521 137.9988,590.6823 Q137.4053,590.4125 136.7744,590.4125 Q135.4297,590.4125 134.7449,591.4792 Q134.0601,592.5458 134.0601,594.6459 Q134.0601,596.7377 134.7449,597.8044 Q135.4297,598.871 136.7744,598.871 Q137.4053,598.871 137.9988,598.6012 Q138.5923,598.3315 139.2231,597.7504 Z " fill="#000000"/><text fill="#000000" font-family="sans-serif" font-size="14" lengthAdjust="spacing" textLength="33" x="157.25" y="599.621">Card</text><line style="stroke:#181818;stroke-width:0.5;" x1="8" x2="307" y1="610.33" y2="610.33"/><rect fill="none" height="6" style="stroke:#C82930;stroke-width:1.0;" width="6" x="15" y="621.0741"/><text fill="#000000" font-family="sans-serif" font-size="14" lengthAdjust="spacing" textLength="74" x="27" y="627.8652">suit: String</text><rect fill="none" height="6" style="stroke:#C82930;stroke-width:1.0;" width="6" x="15" y="637.5624"/><text fill="#000000" font-family="sans-serif" font-size="14" lengthAdjust="spacing" textLength="85" x="27" y="644.3534">value: String</text><rect fill="none" height="6" style="stroke:#C82930;stroke-width:1.0;" width="6" x="15" y="654.0507"/><text fill="#000000" font-family="sans-serif" font-size="14" lengthAdjust="spacing" textLength="57" x="27" y="660.8417">rank: int</text><line style="stroke:#181818;stroke-width:0.5;" x1="8" x2="307" y1="667.7948" y2="667.7948"/><ellipse cx="18" cy="681.539" fill="#84BE84" rx="3" ry="3" style="stroke:#038048;stroke-width:1.0;"/><text fill="#000000" font-family="sans-serif" font-size="14" lengthAdjust="spacing" textLength="275" x="27" y="685.33">Card(suit: String, value: String, rank: int)</text><ellipse cx="18" cy="698.0273" fill="#84BE84" rx="3" ry="3" style="stroke:#038048;stroke-width:1.0;"/><text fill="#000000" font-family="sans-serif" font-size="14" lengthAdjust="spacing" textLength="107" x="27" y="701.8183">getSuit(): String</text><ellipse cx="18" cy="714.5155" fill="#84BE84" rx="3" ry="3" style="stroke:#038048;stroke-width:1.0;"/><text fill="#000000" font-family="sans-serif" font-size="14" lengthAdjust="spacing" textLength="119" x="27" y="718.3066">getValue(): String</text><ellipse cx="18" cy="731.0038" fill="#84BE84" rx="3" ry="3" style="stroke:#038048;stroke-width:1.0;"/><text fill="#000000" font-family="sans-serif" font-size="14" lengthAdjust="spacing" textLength="92" x="27" y="734.7948">getRank(): int</text><ellipse cx="18" cy="747.4921" fill="#84BE84" rx="3" ry="3" style="stroke:#038048;stroke-width:1.0;"/><text fill="#000000" font-family="sans-serif" font-size="14" lengthAdjust="spacing" textLength="130" x="27" y="751.2831">setSuit(suit: String)</text><ellipse cx="18" cy="763.9804" fill="#84BE84" rx="3" ry="3" style="stroke:#038048;stroke-width:1.0;"/><text fill="#000000" font-family="sans-serif" font-size="14" lengthAdjust="spacing" textLength="153" x="27" y="767.7714">setValue(value: String)</text><ellipse cx="18" cy="780.4687" fill="#84BE84" rx="3" ry="3" style="stroke:#038048;stroke-width:1.0;"/><text fill="#000000" font-family="sans-serif" font-size="14" lengthAdjust="spacing" textLength="121" x="27" y="784.2597">setRank(rank: int)</text><ellipse cx="18" cy="796.957" fill="#84BE84" rx="3" ry="3" style="stroke:#038048;stroke-width:1.0;"/><text fill="#000000" font-family="sans-serif" font-size="14" lengthAdjust="spacing" textLength="114" x="27" y="800.748">toString(): String</text></g><!--class Deck--><g id="elem_Deck"><rect codeLine="31" fill="#F1F1F1" height="146.9297" id="Deck" rx="2.5" ry="2.5" style="stroke:#181818;stroke-width:0.5;" width="253" x="31" y="371.4"/><ellipse cx="136.75" cy="387.4" fill="#ADD1B2" rx="11" ry="11" style="stroke:#181818;stroke-width:1.0;"/><path d="M139.2231,393.5431 Q138.6421,393.8419 138.0029,393.9913 Q137.3638,394.1407 136.6582,394.1407 Q134.1514,394.1407 132.8315,392.4889 Q131.5117,390.837 131.5117,387.7159 Q131.5117,384.5865 132.8315,382.9347 Q134.1514,381.2828 136.6582,381.2828 Q137.3638,381.2828 138.0112,381.4322 Q138.6587,381.5816 139.2231,381.8805 L139.2231,384.6031 Q138.5923,384.0221 137.9988,383.7523 Q137.4053,383.4825 136.7744,383.4825 Q135.4297,383.4825 134.7449,384.5492 Q134.0601,385.6158 134.0601,387.7159 Q134.0601,389.8077 134.7449,390.8744 Q135.4297,391.941 136.7744,391.941 Q137.4053,391.941 137.9988,391.6712 Q138.5923,391.4015 139.2231,390.8204 Z " fill="#000000"/><text fill="#000000" font-family="sans-serif" font-size="14" lengthAdjust="spacing" textLength="33" x="157.25" y="392.691">Deck</text><line style="stroke:#181818;stroke-width:0.5;" x1="32" x2="283" y1="403.4" y2="403.4"/><rect fill="none" height="6" style="stroke:#C82930;stroke-width:1.0;" width="6" x="39" y="414.1441"/><text fill="#000000" font-family="sans-serif" font-size="14" lengthAdjust="spacing" textLength="155" x="51" y="420.9352">deck: ArrayList&lt;Card&gt;</text><line style="stroke:#181818;stroke-width:0.5;" x1="32" x2="283" y1="427.8883" y2="427.8883"/><ellipse cx="42" cy="441.6324" fill="#84BE84" rx="3" ry="3" style="stroke:#038048;stroke-width:1.0;"/><text fill="#000000" font-family="sans-serif" font-size="14" lengthAdjust="spacing" textLength="188" x="51" y="445.4234">getDeck(): ArrayList&lt;Card&gt;</text><ellipse cx="42" cy="458.1207" fill="#84BE84" rx="3" ry="3" style="stroke:#038048;stroke-width:1.0;"/><text fill="#000000" font-family="sans-serif" font-size="14" lengthAdjust="spacing" textLength="63" x="51" y="461.9117">setDeck()</text><ellipse cx="42" cy="474.609" fill="#84BE84" rx="3" ry="3" style="stroke:#038048;stroke-width:1.0;"/><text fill="#000000" font-family="sans-serif" font-size="14" lengthAdjust="spacing" textLength="227" x="51" y="478.4">generateDeck(): ArrayList&lt;Card&gt;</text><ellipse cx="42" cy="491.0973" fill="#84BE84" rx="3" ry="3" style="stroke:#038048;stroke-width:1.0;"/><text fill="#000000" font-family="sans-serif" font-size="14" lengthAdjust="spacing" textLength="90" x="51" y="494.8883">shuffleDeck()</text><ellipse cx="42" cy="507.5855" fill="#84BE84" rx="3" ry="3" style="stroke:#038048;stroke-width:1.0;"/><text fill="#000000" font-family="sans-serif" font-size="14" lengthAdjust="spacing" textLength="85" x="51" y="511.3766">draw(): Card</text></g><!--class Winner--><g id="elem_Winner"><rect codeLine="40" fill="#F1F1F1" height="97.4648" id="Winner" rx="2.5" ry="2.5" style="stroke:#181818;stroke-width:0.5;" width="338" x="318.5" y="396.13"/><ellipse cx="459.25" cy="412.13" fill="#ADD1B2" rx="11" ry="11" style="stroke:#181818;stroke-width:1.0;"/><path d="M461.7231,418.2731 Q461.1421,418.5719 460.5029,418.7213 Q459.8638,418.8707 459.1582,418.8707 Q456.6514,418.8707 455.3315,417.2189 Q454.0117,415.567 454.0117,412.4459 Q454.0117,409.3165 455.3315,407.6647 Q456.6514,406.0128 459.1582,406.0128 Q459.8638,406.0128 460.5112,406.1622 Q461.1587,406.3116 461.7231,406.6105 L461.7231,409.3331 Q461.0923,408.7521 460.4988,408.4823 Q459.9053,408.2125 459.2744,408.2125 Q457.9297,408.2125 457.2449,409.2792 Q456.5601,410.3458 456.5601,412.4459 Q456.5601,414.5377 457.2449,415.6044 Q457.9297,416.671 459.2744,416.671 Q459.9053,416.671 460.4988,416.4012 Q461.0923,416.1315 461.7231,415.5504 Z " fill="#000000"/><text fill="#000000" font-family="sans-serif" font-size="14" lengthAdjust="spacing" textLength="48" x="479.75" y="417.421">Winner</text><line style="stroke:#181818;stroke-width:0.5;" x1="319.5" x2="655.5" y1="428.13" y2="428.13"/><line style="stroke:#181818;stroke-width:0.5;" x1="319.5" x2="655.5" y1="436.13" y2="436.13"/><ellipse cx="329.5" cy="449.8741" fill="#84BE84" rx="3" ry="3" style="stroke:#038048;stroke-width:1.0;"/><text fill="#000000" font-family="sans-serif" font-size="14" lengthAdjust="spacing" textLength="295" x="338.5" y="453.6652">shouldDealerDraw(dealer: Dealer): boolean</text><ellipse cx="329.5" cy="466.3624" fill="#84BE84" rx="3" ry="3" style="stroke:#038048;stroke-width:1.0;"/><text fill="#000000" font-family="sans-serif" font-size="14" lengthAdjust="spacing" textLength="243" x="338.5" y="470.1534">isNotBust(human: Human): boolean</text><ellipse cx="329.5" cy="482.8507" fill="#84BE84" rx="3" ry="3" style="stroke:#038048;stroke-width:1.0;"/><text fill="#000000" font-family="sans-serif" font-size="14" lengthAdjust="spacing" textLength="312" x="338.5" y="486.6417">isWinner(player: Player, dealer: Dealer): String</text></g><!--class Human--><g id="elem_Human"><rect codeLine="46" fill="#F1F1F1" height="196.3945" id="Human" rx="2.5" ry="2.5" style="stroke:#181818;stroke-width:0.5;" width="266" x="740.5" y="594.82"/><ellipse cx="844.75" cy="610.82" fill="#A9DCDF" rx="11" ry="11" style="stroke:#181818;stroke-width:1.0;"/><path d="M844.6133,606.1681 L843.4595,611.2399 L845.7754,611.2399 Z M843.1191,603.9269 L846.1157,603.9269 L849.4609,616.32 L847.0122,616.32 L846.2485,613.257 L842.9697,613.257 L842.2227,616.32 L839.7739,616.32 Z " fill="#000000"/><text fill="#000000" font-family="sans-serif" font-size="14" font-style="italic" lengthAdjust="spacing" textLength="49" x="865.25" y="616.111">Human</text><line style="stroke:#181818;stroke-width:0.5;" x1="741.5" x2="1005.5" y1="626.82" y2="626.82"/><rect fill="none" height="6" style="stroke:#C82930;stroke-width:1.0;" width="6" x="748.5" y="637.5641"/><text fill="#000000" font-family="sans-serif" font-size="14" lengthAdjust="spacing" textLength="158" x="760.5" y="644.3552">hand: ArrayList&lt;Card&gt;</text><rect fill="none" height="6" style="stroke:#C82930;stroke-width:1.0;" width="6" x="748.5" y="654.0524"/><text fill="#000000" font-family="sans-serif" font-size="14" lengthAdjust="spacing" textLength="130" x="760.5" y="660.8434">playerName: String</text><line style="stroke:#181818;stroke-width:0.5;" x1="741.5" x2="1005.5" y1="667.7966" y2="667.7966"/><ellipse cx="751.5" cy="681.5407" fill="#84BE84" rx="3" ry="3" style="stroke:#038048;stroke-width:1.0;"/><text fill="#000000" font-family="sans-serif" font-size="14" lengthAdjust="spacing" textLength="146" x="760.5" y="685.3317">Human(name: String)</text><ellipse cx="751.5" cy="698.029" fill="#84BE84" rx="3" ry="3" style="stroke:#038048;stroke-width:1.0;"/><text fill="#000000" font-family="sans-serif" font-size="14" lengthAdjust="spacing" textLength="154" x="760.5" y="701.82">getHand(): List&lt;Card&gt;</text><ellipse cx="751.5" cy="714.5173" fill="#84BE84" rx="3" ry="3" style="stroke:#038048;stroke-width:1.0;"/><text fill="#000000" font-family="sans-serif" font-size="14" lengthAdjust="spacing" textLength="161" x="760.5" y="718.3083">getPlayerName(): String</text><ellipse cx="751.5" cy="731.0055" fill="#84BE84" rx="3" ry="3" style="stroke:#038048;stroke-width:1.0;"/><text fill="#000000" font-family="sans-serif" font-size="14" lengthAdjust="spacing" textLength="134" x="760.5" y="734.7966">setCard(card: Card)</text><ellipse cx="751.5" cy="747.4938" fill="#84BE84" rx="3" ry="3" style="stroke:#038048;stroke-width:1.0;"/><text fill="#000000" font-family="sans-serif" font-size="14" lengthAdjust="spacing" textLength="240" x="760.5" y="751.2848">setPlayerName(playerName: String)</text><ellipse cx="751.5" cy="763.9821" fill="#84BE84" rx="3" ry="3" style="stroke:#038048;stroke-width:1.0;"/><text fill="#000000" font-family="sans-serif" font-size="14" lengthAdjust="spacing" textLength="129" x="760.5" y="767.7731">getHandTotal(): int</text><ellipse cx="751.5" cy="780.4704" fill="#84BE84" rx="3" ry="3" style="stroke:#038048;stroke-width:1.0;"/><text fill="#000000" font-family="sans-serif" font-size="14" lengthAdjust="spacing" textLength="58" x="760.5" y="784.2614">display()</text></g><!--class Player--><g id="elem_Player"><rect codeLine="58" fill="#F1F1F1" height="64.4883" id="Player" rx="2.5" ry="2.5" style="stroke:#181818;stroke-width:0.5;" width="164" x="691.5" y="412.62"/><ellipse cx="748.75" cy="428.62" fill="#ADD1B2" rx="11" ry="11" style="stroke:#181818;stroke-width:1.0;"/><path d="M751.2231,434.7631 Q750.6421,435.0619 750.0029,435.2113 Q749.3638,435.3607 748.6582,435.3607 Q746.1514,435.3607 744.8315,433.7089 Q743.5117,432.057 743.5117,428.9359 Q743.5117,425.8065 744.8315,424.1547 Q746.1514,422.5028 748.6582,422.5028 Q749.3638,422.5028 750.0112,422.6522 Q750.6587,422.8016 751.2231,423.1005 L751.2231,425.8231 Q750.5923,425.2421 749.9988,424.9723 Q749.4053,424.7025 748.7744,424.7025 Q747.4297,424.7025 746.7449,425.7692 Q746.0601,426.8358 746.0601,428.9359 Q746.0601,431.0277 746.7449,432.0944 Q747.4297,433.161 748.7744,433.161 Q749.4053,433.161 749.9988,432.8912 Q750.5923,432.6215 751.2231,432.0404 Z " fill="#000000"/><text fill="#000000" font-family="sans-serif" font-size="14" lengthAdjust="spacing" textLength="41" x="769.25" y="433.911">Player</text><line style="stroke:#181818;stroke-width:0.5;" x1="692.5" x2="854.5" y1="444.62" y2="444.62"/><line style="stroke:#181818;stroke-width:0.5;" x1="692.5" x2="854.5" y1="452.62" y2="452.62"/><ellipse cx="702.5" cy="466.3641" fill="#84BE84" rx="3" ry="3" style="stroke:#038048;stroke-width:1.0;"/><text fill="#000000" font-family="sans-serif" font-size="14" lengthAdjust="spacing" textLength="138" x="711.5" y="470.1552">Player(name: String)</text></g><!--class Dealer--><g id="elem_Dealer"><rect codeLine="62" fill="#F1F1F1" height="80.9766" id="Dealer" rx="2.5" ry="2.5" style="stroke:#181818;stroke-width:0.5;" width="167" x="890" y="404.38"/><ellipse cx="947.25" cy="420.38" fill="#ADD1B2" rx="11" ry="11" style="stroke:#181818;stroke-width:1.0;"/><path d="M949.7231,426.5231 Q949.1421,426.8219 948.5029,426.9713 Q947.8638,427.1207 947.1582,427.1207 Q944.6514,427.1207 943.3315,425.4689 Q942.0117,423.817 942.0117,420.6959 Q942.0117,417.5665 943.3315,415.9147 Q944.6514,414.2628 947.1582,414.2628 Q947.8638,414.2628 948.5112,414.4122 Q949.1587,414.5616 949.7231,414.8605 L949.7231,417.5831 Q949.0923,417.0021 948.4988,416.7323 Q947.9053,416.4625 947.2744,416.4625 Q945.9297,416.4625 945.2449,417.5292 Q944.5601,418.5958 944.5601,420.6959 Q944.5601,422.7877 945.2449,423.8544 Q945.9297,424.921 947.2744,424.921 Q947.9053,424.921 948.4988,424.6512 Q949.0923,424.3815 949.7231,423.8004 Z " fill="#000000"/><text fill="#000000" font-family="sans-serif" font-size="14" lengthAdjust="spacing" textLength="44" x="967.75" y="425.671">Dealer</text><line style="stroke:#181818;stroke-width:0.5;" x1="891" x2="1056" y1="436.38" y2="436.38"/><line style="stroke:#181818;stroke-width:0.5;" x1="891" x2="1056" y1="444.38" y2="444.38"/><ellipse cx="901" cy="458.1241" fill="#84BE84" rx="3" ry="3" style="stroke:#038048;stroke-width:1.0;"/><text fill="#000000" font-family="sans-serif" font-size="14" lengthAdjust="spacing" textLength="141" x="910" y="461.9152">Dealer(name: String)</text><ellipse cx="901" cy="474.6124" fill="#84BE84" rx="3" ry="3" style="stroke:#038048;stroke-width:1.0;"/><text fill="#000000" font-family="sans-serif" font-size="14" lengthAdjust="spacing" textLength="54" x="910" y="478.4034">Dealer()</text></g><!--link Main to Game--><g id="link_Main_Game"><path codeLine="67" d="M630.5,55.19 C630.5,70.78 630.5,92.49 630.5,114.81 " fill="none" id="Main-Game" style="stroke:#181818;stroke-width:1.0;"/></g><!--link Game to Player--><g id="link_Game_Player"><path codeLine="68" d="M691.14,311.6 C713.6,347.66 737.52,386.08 753.76,412.16 " fill="none" id="Game-Player" style="stroke:#181818;stroke-width:1.0;"/></g><!--link Game to Dealer--><g id="link_Game_Dealer"><path codeLine="69" d="M712.76,265.89 C760.17,296.06 820.65,335.19 873.5,371.4 C888.62,381.76 904.8,393.28 919.64,404.04 " fill="none" id="Game-Dealer" style="stroke:#181818;stroke-width:1.0;"/></g><!--link Game to Deck--><g id="link_Game_Deck"><path codeLine="70" d="M548.14,252.98 C481.45,284.52 385.19,330.35 301.5,371.4 C295.85,374.17 290.07,377.02 284.25,379.9 " fill="none" id="Game-Deck" style="stroke:#181818;stroke-width:1.0;"/></g><!--link Player to Human--><g id="link_Player_Human"><path codeLine="71" d="M786.37,477.54 C796.56,502.63 811.48,539.34 826.09,575.32 " fill="none" id="Player-to-Human" style="stroke:#181818;stroke-width:1.0;"/><polygon fill="none" points="832.87,572.42,833.92,593.58,819.9,577.69,832.87,572.42" style="stroke:#181818;stroke-width:1.0;"/></g><!--link Dealer to Human--><g id="link_Dealer_Human"><path codeLine="72" d="M957.32,485.69 C947.39,510.14 934.1,542.85 921.04,575 " fill="none" id="Dealer-to-Human" style="stroke:#181818;stroke-width:1.0;"/><polygon fill="none" points="927.19,577.44,913.18,593.34,914.22,572.17,927.19,577.44" style="stroke:#181818;stroke-width:1.0;"/></g><!--link Game to Winner--><g id="link_Game_Winner"><path codeLine="73" d="M569.86,311.6 C551.74,340.7 532.67,371.32 517.45,395.77 " fill="none" id="Game-Winner" style="stroke:#181818;stroke-width:1.0;"/></g><!--link Deck to Card--><g id="link_Deck_Card"><path codeLine="74" d="M157.5,518.72 C157.5,535.68 157.5,554.17 157.5,572.56 " fill="none" id="Deck-to-Card" style="stroke:#181818;stroke-width:1.0;"/><polygon fill="#181818" points="157.5,577.26,161.5,568.26,157.5,572.26,153.5,568.26,157.5,577.26" style="stroke:#181818;stroke-width:1.0;"/></g><!--SRC=[VLJ1JiCm3BttAt9inVe35Pe4J687cAODmTbhipLQbg8aPPg0VoUEqpPT9ovD_U9dE_PBIWd6i5SGYdqdlqbIUliPJjpPZEMV4YvS5spjLqGg3XAHXLy9AOzebqTdtHaBscA0D4EJ0Ymqd0q1n8y1OT29CYn1LIEOqWomgPlpXfjMMcVt1J-1hgXWqmfRiAtLGXtG_WBPyXZGe5orGbcCXhmqfipOY31ZlRlFVk1swxpJB8g8u3kI9kZ6SH4CoKmWn_coi441HhcxBHzbN8Pjo2NAsBS2vq2jeBayQ0sN5s7iFHvs7af3BsJVs3NTBhaghi7o__phTh-NVE1KRhReYnv3NHz2kL2-CXnYAwj5huHqB2h7tJMDvA3GMPXLOnzROzEwFO4gs1ANQnyAduxrEcEJm4ExO6UiXj8ogiz7fSRLJcstZXfkmyg9EvwqPwOgGZkja6mBDcd_kWyq5ethlPTawJxKm4u54MDQHPplhR4W8zM5UnJV5ef5ew3_g-eZCM7Ro9F-f-SCk6VvXoJF_GEI-5V46U7jwCpmS0ocUpT2HNd-CwT1925pX7G4cdJYTPxdSvBP7m00]--></g></svg>