<?xml version="1.0" encoding="us-ascii" standalone="no"?><svg xmlns="http://www.w3.org/2000/svg" xmlns:xlink="http://www.w3.org/1999/xlink" contentStyleType="text/css" height="914px" preserveAspectRatio="none" style="width:471px;height:914px;background:#FFFFFF;" version="1.1" viewBox="0 0 471 914" width="471px" zoomAndPan="magnify"><defs/><g><rect fill="#F08080" height="902.7402" style="stroke:#181818;stroke-width:0.5;" width="55" x="1" y="6"/><text fill="#000000" font-family="sans-serif" font-size="13" font-weight="bold" lengthAdjust="spacing" textLength="33" x="12" y="18.5684">Main</text><rect fill="#ADD8E6" height="902.7402" style="stroke:#181818;stroke-width:0.5;" width="61" x="94" y="6"/><text fill="#000000" font-family="sans-serif" font-size="13" font-weight="bold" lengthAdjust="spacing" textLength="39" x="105" y="18.5684">Game</text><rect fill="#FFFFE0" height="902.7402" style="stroke:#181818;stroke-width:0.5;" width="55" x="157" y="6"/><text fill="#000000" font-family="sans-serif" font-size="13" font-weight="bold" lengthAdjust="spacing" textLength="32" x="168.5" y="18.5684">Card</text><rect fill="#90EE90" height="902.7402" style="stroke:#181818;stroke-width:0.5;" width="55" x="215" y="6"/><text fill="#000000" font-family="sans-serif" font-size="13" font-weight="bold" lengthAdjust="spacing" textLength="33" x="226" y="18.5684">Deck</text><rect fill="#FFB6C1" height="902.7402" style="stroke:#181818;stroke-width:0.5;" width="70" x="272" y="6"/><text fill="#000000" font-family="sans-serif" font-size="13" font-weight="bold" lengthAdjust="spacing" textLength="48" x="283" y="18.5684">Winner</text><rect fill="#D3D3D3" height="902.7402" style="stroke:#181818;stroke-width:0.5;" width="55" x="344" y="6"/><text fill="#000000" font-family="sans-serif" font-size="13" font-weight="bold" lengthAdjust="spacing" textLength="42" x="350.5" y="18.5684">Player</text><rect fill="#D3D3D3" height="902.7402" style="stroke:#181818;stroke-width:0.5;" width="58" x="401" y="6"/><text fill="#000000" font-family="sans-serif" font-size="13" font-weight="bold" lengthAdjust="spacing" textLength="44" x="408" y="18.5684">Dealer</text><rect fill="#FFFFFF" height="678.1426" style="stroke:#181818;stroke-width:1.0;" width="10" x="119.5" y="133.1094"/><rect fill="#FFFFFF" height="648.832" style="stroke:#181818;stroke-width:1.0;" width="10" x="237.5" y="162.4199"/><rect fill="#FFFFFF" height="560.9004" style="stroke:#181818;stroke-width:1.0;" width="10" x="366.5" y="250.3516"/><rect fill="#FFFFFF" height="531.5898" style="stroke:#181818;stroke-width:1.0;" width="10" x="425" y="279.6621"/><rect fill="none" height="134.5527" style="stroke:#000000;stroke-width:1.5;" width="317" x="88" y="294.6621"/><rect fill="none" height="134.5527" style="stroke:#000000;stroke-width:1.5;" width="377" x="88" y="443.2148"/><line style="stroke:#181818;stroke-width:0.5;stroke-dasharray:5.0,5.0;" x1="28" x2="28" y1="101.7988" y2="829.252"/><line style="stroke:#181818;stroke-width:0.5;stroke-dasharray:5.0,5.0;" x1="124" x2="124" y1="101.7988" y2="829.252"/><line style="stroke:#181818;stroke-width:0.5;stroke-dasharray:5.0,5.0;" x1="184" x2="184" y1="101.7988" y2="829.252"/><line style="stroke:#181818;stroke-width:0.5;stroke-dasharray:5.0,5.0;" x1="242" x2="242" y1="101.7988" y2="829.252"/><line style="stroke:#181818;stroke-width:0.5;stroke-dasharray:5.0,5.0;" x1="307" x2="307" y1="101.7988" y2="829.252"/><line style="stroke:#181818;stroke-width:0.5;stroke-dasharray:5.0,5.0;" x1="371" x2="371" y1="101.7988" y2="829.252"/><line style="stroke:#181818;stroke-width:0.5;stroke-dasharray:5.0,5.0;" x1="430" x2="430" y1="101.7988" y2="829.252"/><rect fill="#E2E2F0" height="30.4883" rx="2.5" ry="2.5" style="stroke:#181818;stroke-width:0.5;" width="47" x="5" y="70.3105"/><text fill="#000000" font-family="sans-serif" font-size="14" lengthAdjust="spacing" textLength="33" x="12" y="90.8457">Main</text><rect fill="#E2E2F0" height="30.4883" rx="2.5" ry="2.5" style="stroke:#181818;stroke-width:0.5;" width="47" x="5" y="828.252"/><text fill="#000000" font-family="sans-serif" font-size="14" lengthAdjust="spacing" textLength="33" x="12" y="848.7871">Main</text><rect fill="#E2E2F0" height="30.4883" rx="2.5" ry="2.5" style="stroke:#181818;stroke-width:0.5;" width="53" x="98" y="70.3105"/><text fill="#000000" font-family="sans-serif" font-size="14" lengthAdjust="spacing" textLength="39" x="105" y="90.8457">Game</text><rect fill="#E2E2F0" height="30.4883" rx="2.5" ry="2.5" style="stroke:#181818;stroke-width:0.5;" width="53" x="98" y="828.252"/><text fill="#000000" font-family="sans-serif" font-size="14" lengthAdjust="spacing" textLength="39" x="105" y="848.7871">Game</text><rect fill="#E2E2F0" height="30.4883" rx="2.5" ry="2.5" style="stroke:#181818;stroke-width:0.5;" width="47" x="161" y="70.3105"/><text fill="#000000" font-family="sans-serif" font-size="14" lengthAdjust="spacing" textLength="33" x="168" y="90.8457">Card</text><rect fill="#E2E2F0" height="30.4883" rx="2.5" ry="2.5" style="stroke:#181818;stroke-width:0.5;" width="47" x="161" y="828.252"/><text fill="#000000" font-family="sans-serif" font-size="14" lengthAdjust="spacing" textLength="33" x="168" y="848.7871">Card</text><rect fill="#E2E2F0" height="30.4883" rx="2.5" ry="2.5" style="stroke:#181818;stroke-width:0.5;" width="47" x="219" y="70.3105"/><text fill="#000000" font-family="sans-serif" font-size="14" lengthAdjust="spacing" textLength="33" x="226" y="90.8457">Deck</text><rect fill="#E2E2F0" height="30.4883" rx="2.5" ry="2.5" style="stroke:#181818;stroke-width:0.5;" width="47" x="219" y="828.252"/><text fill="#000000" font-family="sans-serif" font-size="14" lengthAdjust="spacing" textLength="33" x="226" y="848.7871">Deck</text><rect fill="#E2E2F0" height="30.4883" rx="2.5" ry="2.5" style="stroke:#181818;stroke-width:0.5;" width="62" x="276" y="70.3105"/><text fill="#000000" font-family="sans-serif" font-size="14" lengthAdjust="spacing" textLength="48" x="283" y="90.8457">Winner</text><rect fill="#E2E2F0" height="30.4883" rx="2.5" ry="2.5" style="stroke:#181818;stroke-width:0.5;" width="62" x="276" y="828.252"/><text fill="#000000" font-family="sans-serif" font-size="14" lengthAdjust="spacing" textLength="48" x="283" y="848.7871">Winner</text><text fill="#000000" font-family="sans-serif" font-size="14" lengthAdjust="spacing" textLength="41" x="348" y="98.8457">Player</text><ellipse cx="371.5" cy="33.8105" fill="#E2E2F0" rx="8" ry="8" style="stroke:#181818;stroke-width:0.5;"/><path d="M371.5,41.8105 L371.5,68.8105 M358.5,49.8105 L384.5,49.8105 M371.5,68.8105 L358.5,83.8105 M371.5,68.8105 L384.5,83.8105 " fill="none" style="stroke:#181818;stroke-width:0.5;"/><text fill="#000000" font-family="sans-serif" font-size="14" lengthAdjust="spacing" textLength="41" x="348" y="841.7871">Player</text><ellipse cx="371.5" cy="853.2402" fill="#E2E2F0" rx="8" ry="8" style="stroke:#181818;stroke-width:0.5;"/><path d="M371.5,861.2402 L371.5,888.2402 M358.5,869.2402 L384.5,869.2402 M371.5,888.2402 L358.5,903.2402 M371.5,888.2402 L384.5,903.2402 " fill="none" style="stroke:#181818;stroke-width:0.5;"/><text fill="#000000" font-family="sans-serif" font-size="14" lengthAdjust="spacing" textLength="44" x="405" y="98.8457">Dealer</text><ellipse cx="430" cy="33.8105" fill="#E2E2F0" rx="8" ry="8" style="stroke:#181818;stroke-width:0.5;"/><path d="M430,41.8105 L430,68.8105 M417,49.8105 L443,49.8105 M430,68.8105 L417,83.8105 M430,68.8105 L443,83.8105 " fill="none" style="stroke:#181818;stroke-width:0.5;"/><text fill="#000000" font-family="sans-serif" font-size="14" lengthAdjust="spacing" textLength="44" x="405" y="841.7871">Dealer</text><ellipse cx="430" cy="853.2402" fill="#E2E2F0" rx="8" ry="8" style="stroke:#181818;stroke-width:0.5;"/><path d="M430,861.2402 L430,888.2402 M417,869.2402 L443,869.2402 M430,888.2402 L417,903.2402 M430,888.2402 L443,903.2402 " fill="none" style="stroke:#181818;stroke-width:0.5;"/><rect fill="#FFFFFF" height="678.1426" style="stroke:#181818;stroke-width:1.0;" width="10" x="119.5" y="133.1094"/><rect fill="#FFFFFF" height="648.832" style="stroke:#181818;stroke-width:1.0;" width="10" x="237.5" y="162.4199"/><rect fill="#FFFFFF" height="560.9004" style="stroke:#181818;stroke-width:1.0;" width="10" x="366.5" y="250.3516"/><rect fill="#FFFFFF" height="531.5898" style="stroke:#181818;stroke-width:1.0;" width="10" x="425" y="279.6621"/><polygon fill="#181818" points="107.5,129.1094,117.5,133.1094,107.5,137.1094,111.5,133.1094" style="stroke:#181818;stroke-width:1.0;"/><line style="stroke:#181818;stroke-width:1.0;" x1="28.5" x2="113.5" y1="133.1094" y2="133.1094"/><text fill="#000000" font-family="sans-serif" font-size="13" lengthAdjust="spacing" textLength="72" x="35.5" y="128.3672">startGame()</text><polygon fill="#181818" points="225.5,158.4199,235.5,162.4199,225.5,166.4199,229.5,162.4199" style="stroke:#181818;stroke-width:1.0;"/><line style="stroke:#181818;stroke-width:1.0;" x1="129.5" x2="231.5" y1="162.4199" y2="162.4199"/><text fill="#000000" font-family="sans-serif" font-size="13" lengthAdjust="spacing" textLength="69" x="136.5" y="157.6777">new Deck()</text><polygon fill="#181818" points="140.5,187.7305,130.5,191.7305,140.5,195.7305,136.5,191.7305" style="stroke:#181818;stroke-width:1.0;"/><line style="stroke:#181818;stroke-width:1.0;stroke-dasharray:2.0,2.0;" x1="134.5" x2="236.5" y1="191.7305" y2="191.7305"/><text fill="#000000" font-family="sans-serif" font-size="13" lengthAdjust="spacing" textLength="30" x="146.5" y="186.9883">deck</text><polygon fill="#181818" points="225.5,217.041,235.5,221.041,225.5,225.041,229.5,221.041" style="stroke:#181818;stroke-width:1.0;"/><line style="stroke:#181818;stroke-width:1.0;" x1="129.5" x2="231.5" y1="221.041" y2="221.041"/><text fill="#000000" font-family="sans-serif" font-size="13" lengthAdjust="spacing" textLength="84" x="136.5" y="216.2988">shuffleDeck()</text><polygon fill="#181818" points="354.5,246.3516,364.5,250.3516,354.5,254.3516,358.5,250.3516" style="stroke:#181818;stroke-width:1.0;"/><line style="stroke:#181818;stroke-width:1.0;" x1="129.5" x2="360.5" y1="250.3516" y2="250.3516"/><text fill="#000000" font-family="sans-serif" font-size="13" lengthAdjust="spacing" textLength="118" x="136.5" y="245.6094">new Player("name")</text><polygon fill="#181818" points="413,275.6621,423,279.6621,413,283.6621,417,279.6621" style="stroke:#181818;stroke-width:1.0;"/><line style="stroke:#181818;stroke-width:1.0;" x1="129.5" x2="419" y1="279.6621" y2="279.6621"/><text fill="#000000" font-family="sans-serif" font-size="13" lengthAdjust="spacing" textLength="77" x="136.5" y="274.9199">new Dealer()</text><path d="M88,294.6621 L162,294.6621 L162,301.9727 L152,311.9727 L88,311.9727 L88,294.6621 " fill="#EEEEEE" style="stroke:#000000;stroke-width:1.5;"/><rect fill="none" height="134.5527" style="stroke:#000000;stroke-width:1.5;" width="317" x="88" y="294.6621"/><text fill="#000000" font-family="sans-serif" font-size="13" font-weight="bold" lengthAdjust="spacing" textLength="29" x="103" y="308.2305">loop</text><polygon fill="#181818" points="140.5,329.2832,130.5,333.2832,140.5,337.2832,136.5,333.2832" style="stroke:#181818;stroke-width:1.0;"/><line style="stroke:#181818;stroke-width:1.0;" x1="134.5" x2="365.5" y1="333.2832" y2="333.2832"/><text fill="#000000" font-family="sans-serif" font-size="13" lengthAdjust="spacing" textLength="85" x="146.5" y="328.541">playerDraws()</text><polygon fill="#181818" points="225.5,358.5938,235.5,362.5938,225.5,366.5938,229.5,362.5938" style="stroke:#181818;stroke-width:1.0;"/><line style="stroke:#181818;stroke-width:1.0;" x1="129.5" x2="231.5" y1="362.5938" y2="362.5938"/><text fill="#000000" font-family="sans-serif" font-size="13" lengthAdjust="spacing" textLength="38" x="136.5" y="357.8516">draw()</text><polygon fill="#181818" points="140.5,387.9043,130.5,391.9043,140.5,395.9043,136.5,391.9043" style="stroke:#181818;stroke-width:1.0;"/><line style="stroke:#181818;stroke-width:1.0;stroke-dasharray:2.0,2.0;" x1="134.5" x2="236.5" y1="391.9043" y2="391.9043"/><text fill="#000000" font-family="sans-serif" font-size="13" lengthAdjust="spacing" textLength="27" x="146.5" y="387.1621">card</text><polygon fill="#181818" points="354.5,417.2148,364.5,421.2148,354.5,425.2148,358.5,421.2148" style="stroke:#181818;stroke-width:1.0;"/><line style="stroke:#181818;stroke-width:1.0;" x1="129.5" x2="360.5" y1="421.2148" y2="421.2148"/><text fill="#000000" font-family="sans-serif" font-size="13" lengthAdjust="spacing" textLength="83" x="136.5" y="416.4727">setCard(card)</text><path d="M88,443.2148 L162,443.2148 L162,450.5254 L152,460.5254 L88,460.5254 L88,443.2148 " fill="#EEEEEE" style="stroke:#000000;stroke-width:1.5;"/><rect fill="none" height="134.5527" style="stroke:#000000;stroke-width:1.5;" width="377" x="88" y="443.2148"/><text fill="#000000" font-family="sans-serif" font-size="13" font-weight="bold" lengthAdjust="spacing" textLength="29" x="103" y="456.7832">loop</text><polygon fill="#181818" points="140.5,477.8359,130.5,481.8359,140.5,485.8359,136.5,481.8359" style="stroke:#181818;stroke-width:1.0;"/><line style="stroke:#181818;stroke-width:1.0;" x1="134.5" x2="424" y1="481.8359" y2="481.8359"/><text fill="#000000" font-family="sans-serif" font-size="13" lengthAdjust="spacing" textLength="85" x="146.5" y="477.0938">dealerDraws()</text><polygon fill="#181818" points="225.5,507.1465,235.5,511.1465,225.5,515.1465,229.5,511.1465" style="stroke:#181818;stroke-width:1.0;"/><line style="stroke:#181818;stroke-width:1.0;" x1="129.5" x2="231.5" y1="511.1465" y2="511.1465"/><text fill="#000000" font-family="sans-serif" font-size="13" lengthAdjust="spacing" textLength="38" x="136.5" y="506.4043">draw()</text><polygon fill="#181818" points="140.5,536.457,130.5,540.457,140.5,544.457,136.5,540.457" style="stroke:#181818;stroke-width:1.0;"/><line style="stroke:#181818;stroke-width:1.0;stroke-dasharray:2.0,2.0;" x1="134.5" x2="236.5" y1="540.457" y2="540.457"/><text fill="#000000" font-family="sans-serif" font-size="13" lengthAdjust="spacing" textLength="27" x="146.5" y="535.7148">card</text><polygon fill="#181818" points="413,565.7676,423,569.7676,413,573.7676,417,569.7676" style="stroke:#181818;stroke-width:1.0;"/><line style="stroke:#181818;stroke-width:1.0;" x1="129.5" x2="419" y1="569.7676" y2="569.7676"/><text fill="#000000" font-family="sans-serif" font-size="13" lengthAdjust="spacing" textLength="83" x="136.5" y="565.0254">setCard(card)</text><polygon fill="#181818" points="140.5,602.0781,130.5,606.0781,140.5,610.0781,136.5,606.0781" style="stroke:#181818;stroke-width:1.0;"/><line style="stroke:#181818;stroke-width:1.0;" x1="134.5" x2="365.5" y1="606.0781" y2="606.0781"/><text fill="#000000" font-family="sans-serif" font-size="13" lengthAdjust="spacing" textLength="123" x="146.5" y="601.3359">displayPlayerHand()</text><polygon fill="#181818" points="354.5,631.3887,364.5,635.3887,354.5,639.3887,358.5,635.3887" style="stroke:#181818;stroke-width:1.0;"/><line style="stroke:#181818;stroke-width:1.0;" x1="129.5" x2="360.5" y1="635.3887" y2="635.3887"/><text fill="#000000" font-family="sans-serif" font-size="13" lengthAdjust="spacing" textLength="53" x="136.5" y="630.6465">display()</text><polygon fill="#181818" points="140.5,660.6992,130.5,664.6992,140.5,668.6992,136.5,664.6992" style="stroke:#181818;stroke-width:1.0;"/><line style="stroke:#181818;stroke-width:1.0;" x1="134.5" x2="424" y1="664.6992" y2="664.6992"/><text fill="#000000" font-family="sans-serif" font-size="13" lengthAdjust="spacing" textLength="126" x="146.5" y="659.957">displayDealerHand()</text><polygon fill="#181818" points="413,690.0098,423,694.0098,413,698.0098,417,694.0098" style="stroke:#181818;stroke-width:1.0;"/><line style="stroke:#181818;stroke-width:1.0;" x1="129.5" x2="419" y1="694.0098" y2="694.0098"/><text fill="#000000" font-family="sans-serif" font-size="13" lengthAdjust="spacing" textLength="53" x="136.5" y="689.2676">display()</text><polygon fill="#181818" points="140.5,719.3203,130.5,723.3203,140.5,727.3203,136.5,723.3203" style="stroke:#181818;stroke-width:1.0;"/><line style="stroke:#181818;stroke-width:1.0;" x1="134.5" x2="365.5" y1="723.3203" y2="723.3203"/><text fill="#000000" font-family="sans-serif" font-size="13" lengthAdjust="spacing" textLength="80" x="146.5" y="718.5781">showResult()</text><polygon fill="#181818" points="295,748.6309,305,752.6309,295,756.6309,299,752.6309" style="stroke:#181818;stroke-width:1.0;"/><line style="stroke:#181818;stroke-width:1.0;" x1="129.5" x2="301" y1="752.6309" y2="752.6309"/><text fill="#000000" font-family="sans-serif" font-size="13" lengthAdjust="spacing" textLength="146" x="136.5" y="747.8887">isWinner(player, dealer)</text><polygon fill="#181818" points="140.5,777.9414,130.5,781.9414,140.5,785.9414,136.5,781.9414" style="stroke:#181818;stroke-width:1.0;"/><line style="stroke:#181818;stroke-width:1.0;stroke-dasharray:2.0,2.0;" x1="134.5" x2="306" y1="781.9414" y2="781.9414"/><text fill="#000000" font-family="sans-serif" font-size="13" lengthAdjust="spacing" textLength="36" x="146.5" y="777.1992">result</text><polygon fill="#181818" points="359.5,807.252,369.5,811.252,359.5,815.252,363.5,811.252" style="stroke:#181818;stroke-width:1.0;"/><line style="stroke:#181818;stroke-width:1.0;stroke-dasharray:2.0,2.0;" x1="124.5" x2="365.5" y1="811.252" y2="811.252"/><text fill="#000000" font-family="sans-serif" font-size="13" lengthAdjust="spacing" textLength="36" x="131.5" y="806.5098">result</text><!--SRC=[fL9DJmCX4BtpAqYzR1Fx1pnui4tgGPF6Y_4uxaujAOKDKDV-UnbWTu7MapTctdlpyHXedJPy9-62Xa48DWZI1-nJ__35AmYru7SluklWrjg0P3qO9rhHWtASK8QguvwR15iuuIXuacSi-0HM_3MORkH_e9HwA1G4LueDjiTHiJM8gX0GMWdUXL9eHibEg6EXY72bYOxCRU1IQ99XzM1at9-QvEka8VFuwZ6OmX-uTPvBxsP97o6-mM4qZ0M6Pz9kdgbm2C-S6DOE-6eksL6oLjl3UR-Nc0gCO5me5Oz1ir3qbrcJjFLSa1QQ1gAW72dUaTIwPtpiC4_NXyJ6m62zZFDgpiu38LzlrT99pFHfSekEhgKXV4asJwtJeBanbFXtwyc06wslrks4fOrZ_XbKTylzHF8GknuwOZ5V5PWcoGfSJM0FUdX3UvOkKyRhzwYmyTd4VxbF9YrPOcGsc50abSZ7Jm3pqkfciaowYoBZxpIBmzN_0W00]--></g></svg>